<mxfile host="app.diagrams.net" agent="Mozilla/5.0 (Macintosh; Intel Mac OS X 10_15_7) AppleWebKit/537.36 (KHTML, like Gecko) Chrome/133.0.0.0 Safari/537.36" version="26.0.14" pages="3">
  <diagram name="LLM-Workflow" id="elSsqyN3XYZDIn-Tpfjf">
    <mxGraphModel dx="954" dy="612" grid="1" gridSize="10" guides="1" tooltips="1" connect="1" arrows="1" fold="1" page="1" pageScale="1" pageWidth="827" pageHeight="1169" math="0" shadow="0">
      <root>
        <mxCell id="0" />
        <mxCell id="1" parent="0" />
        <mxCell id="hG1oWdDg106iIrrdXNge-2" value="" style="rounded=1;whiteSpace=wrap;html=1;dashed=1;" parent="1" vertex="1">
          <mxGeometry y="80" width="670" height="290" as="geometry" />
        </mxCell>
        <mxCell id="hG1oWdDg106iIrrdXNge-1" value="MODEL" style="rounded=0;whiteSpace=wrap;html=1;" parent="1" vertex="1">
          <mxGeometry x="170" y="190" width="120" height="60" as="geometry" />
        </mxCell>
        <mxCell id="MmDlDIk7cSTtpNqKVYXz-2" value="Unstrcutred data" style="html=1;verticalLabelPosition=bottom;align=center;labelBackgroundColor=#ffffff;verticalAlign=top;strokeWidth=2;strokeColor=#0080F0;shadow=0;dashed=0;shape=mxgraph.ios7.icons.documents;" vertex="1" parent="1">
          <mxGeometry x="50" y="170" width="22.5" height="30" as="geometry" />
        </mxCell>
        <mxCell id="MmDlDIk7cSTtpNqKVYXz-3" value="Structured respond" style="html=1;verticalLabelPosition=bottom;align=center;labelBackgroundColor=#ffffff;verticalAlign=top;strokeWidth=2;strokeColor=#0080F0;shadow=0;dashed=0;shape=mxgraph.ios7.icons.documents;" vertex="1" parent="1">
          <mxGeometry x="570" y="200" width="22.5" height="30" as="geometry" />
        </mxCell>
      </root>
    </mxGraphModel>
  </diagram>
  <diagram id="2shdIPr_-YXEAy8oOTYq" name="MAL-Workflow">
    <mxGraphModel dx="954" dy="612" grid="1" gridSize="10" guides="1" tooltips="1" connect="1" arrows="1" fold="1" page="1" pageScale="1" pageWidth="827" pageHeight="1169" math="0" shadow="0">
      <root>
        <mxCell id="0" />
        <mxCell id="1" parent="0" />
        <mxCell id="qL4WbmbikjW_WoXq0OuZ-1" value="" style="rounded=1;whiteSpace=wrap;html=1;gradientColor=default;fillColor=none;dashed=1;" vertex="1" parent="1">
          <mxGeometry x="60" y="120" width="650" height="340" as="geometry" />
        </mxCell>
      </root>
    </mxGraphModel>
  </diagram>
  <diagram id="jNvF5oQ5NfuYCotzWVio" name="malLLM-Workflow">
    <mxGraphModel dx="954" dy="612" grid="1" gridSize="10" guides="1" tooltips="1" connect="1" arrows="1" fold="1" page="1" pageScale="1" pageWidth="827" pageHeight="1169" math="0" shadow="0">
      <root>
        <mxCell id="0" />
        <mxCell id="1" parent="0" />
      </root>
    </mxGraphModel>
  </diagram>
</mxfile>
